<mxfile host="app.diagrams.net" modified="2022-05-19T07:54:41.290Z" agent="5.0 (Windows NT 10.0; Win64; x64) AppleWebKit/537.36 (KHTML, like Gecko) Chrome/92.0.4515.107 Safari/537.36" etag="bc3tBBumJqKL1moHqLl7" version="18.0.7" type="github">
  <diagram id="6a731a19-8d31-9384-78a2-239565b7b9f0" name="Page-1">
    <mxGraphModel dx="772" dy="413" grid="1" gridSize="10" guides="1" tooltips="1" connect="1" arrows="1" fold="1" page="1" pageScale="1" pageWidth="1169" pageHeight="827" background="none" math="0" shadow="0">
      <root>
        <mxCell id="0" />
        <mxCell id="1" parent="0" />
        <mxCell id="7" style="fontStyle=1;strokeColor=#003366;strokeWidth=1;html=1;" parent="1" edge="1">
          <mxGeometry relative="1" as="geometry">
            <mxPoint x="320" y="90" as="sourcePoint" />
            <mxPoint x="320" y="130" as="targetPoint" />
          </mxGeometry>
        </mxCell>
        <mxCell id="8" style="fontStyle=1;strokeColor=#003366;strokeWidth=1;html=1;exitX=0.5;exitY=1;exitDx=0;exitDy=0;entryX=0.5;entryY=0;entryDx=0;entryDy=0;" parent="1" target="ftp8mGhVSmbORJSX6osh-58" edge="1">
          <mxGeometry relative="1" as="geometry">
            <mxPoint x="320" y="190" as="sourcePoint" />
            <mxPoint x="320" y="220" as="targetPoint" />
          </mxGeometry>
        </mxCell>
        <mxCell id="9" style="entryX=0.5;entryY=0;entryPerimeter=0;fontStyle=1;strokeColor=#003366;strokeWidth=1;html=1;startArrow=none;" parent="1" source="ftp8mGhVSmbORJSX6osh-66" edge="1">
          <mxGeometry relative="1" as="geometry">
            <mxPoint x="320" y="330" as="sourcePoint" />
            <mxPoint x="320" y="360" as="targetPoint" />
          </mxGeometry>
        </mxCell>
        <mxCell id="ftp8mGhVSmbORJSX6osh-57" value="" style="edgeStyle=orthogonalEdgeStyle;rounded=0;orthogonalLoop=1;jettySize=auto;html=1;" edge="1" parent="1" source="ftp8mGhVSmbORJSX6osh-56">
          <mxGeometry relative="1" as="geometry">
            <mxPoint x="320" y="130" as="targetPoint" />
          </mxGeometry>
        </mxCell>
        <mxCell id="ftp8mGhVSmbORJSX6osh-56" value="开始" style="ellipse;whiteSpace=wrap;html=1;strokeWidth=2;" vertex="1" parent="1">
          <mxGeometry x="260" y="60" width="120" height="40" as="geometry" />
        </mxCell>
        <mxCell id="ftp8mGhVSmbORJSX6osh-63" value="" style="edgeStyle=orthogonalEdgeStyle;rounded=0;orthogonalLoop=1;jettySize=auto;html=1;" edge="1" parent="1" source="ftp8mGhVSmbORJSX6osh-58" target="ftp8mGhVSmbORJSX6osh-62">
          <mxGeometry relative="1" as="geometry" />
        </mxCell>
        <mxCell id="ftp8mGhVSmbORJSX6osh-58" value="参数设置完成？" style="rhombus;whiteSpace=wrap;html=1;strokeWidth=2;" vertex="1" parent="1">
          <mxGeometry x="265.5" y="230" width="111" height="80" as="geometry" />
        </mxCell>
        <mxCell id="ftp8mGhVSmbORJSX6osh-68" style="edgeStyle=orthogonalEdgeStyle;rounded=0;orthogonalLoop=1;jettySize=auto;html=1;entryX=0;entryY=0.5;entryDx=0;entryDy=0;" edge="1" parent="1" source="ftp8mGhVSmbORJSX6osh-62" target="ftp8mGhVSmbORJSX6osh-66">
          <mxGeometry relative="1" as="geometry">
            <Array as="points">
              <mxPoint x="130" y="357" />
            </Array>
          </mxGeometry>
        </mxCell>
        <mxCell id="ftp8mGhVSmbORJSX6osh-62" value="提示用户参数未设置，使用默认参数" style="whiteSpace=wrap;html=1;strokeWidth=2;" vertex="1" parent="1">
          <mxGeometry x="80" y="240" width="120" height="60" as="geometry" />
        </mxCell>
        <mxCell id="ftp8mGhVSmbORJSX6osh-69" value="否" style="text;html=1;strokeColor=none;fillColor=none;align=center;verticalAlign=middle;whiteSpace=wrap;rounded=0;" vertex="1" parent="1">
          <mxGeometry x="200" y="245" width="60" height="30" as="geometry" />
        </mxCell>
        <mxCell id="ftp8mGhVSmbORJSX6osh-70" value="是" style="text;html=1;strokeColor=none;fillColor=none;align=center;verticalAlign=middle;whiteSpace=wrap;rounded=0;" vertex="1" parent="1">
          <mxGeometry x="316.5" y="310" width="60" height="30" as="geometry" />
        </mxCell>
        <mxCell id="ftp8mGhVSmbORJSX6osh-93" style="edgeStyle=orthogonalEdgeStyle;rounded=0;orthogonalLoop=1;jettySize=auto;html=1;entryX=0;entryY=0.5;entryDx=0;entryDy=0;" edge="1" parent="1" source="ftp8mGhVSmbORJSX6osh-71" target="ftp8mGhVSmbORJSX6osh-92">
          <mxGeometry relative="1" as="geometry" />
        </mxCell>
        <mxCell id="ftp8mGhVSmbORJSX6osh-111" style="edgeStyle=orthogonalEdgeStyle;rounded=0;orthogonalLoop=1;jettySize=auto;html=1;" edge="1" parent="1" source="ftp8mGhVSmbORJSX6osh-71" target="ftp8mGhVSmbORJSX6osh-73">
          <mxGeometry relative="1" as="geometry" />
        </mxCell>
        <mxCell id="ftp8mGhVSmbORJSX6osh-71" value="数据采样FIFO存储" style="shape=parallelogram;perimeter=parallelogramPerimeter;whiteSpace=wrap;html=1;fixedSize=1;strokeWidth=2;" vertex="1" parent="1">
          <mxGeometry x="253.25" y="430" width="135" height="60" as="geometry" />
        </mxCell>
        <mxCell id="ftp8mGhVSmbORJSX6osh-112" style="edgeStyle=orthogonalEdgeStyle;rounded=0;orthogonalLoop=1;jettySize=auto;html=1;exitX=0;exitY=0.5;exitDx=0;exitDy=0;" edge="1" parent="1" source="ftp8mGhVSmbORJSX6osh-73">
          <mxGeometry relative="1" as="geometry">
            <mxPoint x="320" y="390" as="targetPoint" />
            <Array as="points">
              <mxPoint x="132" y="560" />
              <mxPoint x="132" y="390" />
            </Array>
          </mxGeometry>
        </mxCell>
        <mxCell id="ftp8mGhVSmbORJSX6osh-113" style="edgeStyle=orthogonalEdgeStyle;rounded=0;orthogonalLoop=1;jettySize=auto;html=1;" edge="1" parent="1" source="ftp8mGhVSmbORJSX6osh-73" target="ftp8mGhVSmbORJSX6osh-103">
          <mxGeometry relative="1" as="geometry" />
        </mxCell>
        <mxCell id="ftp8mGhVSmbORJSX6osh-73" value="到达指定延迟时间？" style="rhombus;whiteSpace=wrap;html=1;strokeWidth=2;" vertex="1" parent="1">
          <mxGeometry x="251.75" y="520" width="136.5" height="80" as="geometry" />
        </mxCell>
        <mxCell id="ftp8mGhVSmbORJSX6osh-90" style="edgeStyle=orthogonalEdgeStyle;rounded=0;orthogonalLoop=1;jettySize=auto;html=1;entryX=0.5;entryY=0;entryDx=0;entryDy=0;" edge="1" parent="1" source="ftp8mGhVSmbORJSX6osh-66" target="ftp8mGhVSmbORJSX6osh-71">
          <mxGeometry relative="1" as="geometry" />
        </mxCell>
        <mxCell id="ftp8mGhVSmbORJSX6osh-66" value="&lt;span style=&quot;&quot;&gt;开始采样&lt;/span&gt;" style="rounded=0;whiteSpace=wrap;html=1;strokeWidth=2;" vertex="1" parent="1">
          <mxGeometry x="261.5" y="340" width="120" height="34" as="geometry" />
        </mxCell>
        <mxCell id="ftp8mGhVSmbORJSX6osh-78" value="" style="entryX=0.5;entryY=0;entryPerimeter=0;fontStyle=1;strokeColor=#003366;strokeWidth=1;html=1;endArrow=none;" edge="1" parent="1" source="ftp8mGhVSmbORJSX6osh-58" target="ftp8mGhVSmbORJSX6osh-66">
          <mxGeometry relative="1" as="geometry">
            <mxPoint x="320.5590863952334" y="309.68222442899696" as="sourcePoint" />
            <mxPoint x="320" y="360" as="targetPoint" />
          </mxGeometry>
        </mxCell>
        <mxCell id="ftp8mGhVSmbORJSX6osh-102" value="" style="edgeStyle=orthogonalEdgeStyle;rounded=0;orthogonalLoop=1;jettySize=auto;html=1;" edge="1" parent="1" source="ftp8mGhVSmbORJSX6osh-83" target="ftp8mGhVSmbORJSX6osh-101">
          <mxGeometry relative="1" as="geometry" />
        </mxCell>
        <mxCell id="ftp8mGhVSmbORJSX6osh-83" value="打包数据，上传环境噪声数据至上位机" style="rounded=0;whiteSpace=wrap;html=1;strokeWidth=2;" vertex="1" parent="1">
          <mxGeometry x="470" y="530" width="120" height="60" as="geometry" />
        </mxCell>
        <mxCell id="ftp8mGhVSmbORJSX6osh-88" value="" style="edgeStyle=orthogonalEdgeStyle;rounded=0;orthogonalLoop=1;jettySize=auto;html=1;exitX=0.5;exitY=1;exitDx=0;exitDy=0;startArrow=none;" edge="1" parent="1" source="ftp8mGhVSmbORJSX6osh-103" target="ftp8mGhVSmbORJSX6osh-87">
          <mxGeometry relative="1" as="geometry">
            <mxPoint x="320.75" y="690" as="sourcePoint" />
          </mxGeometry>
        </mxCell>
        <mxCell id="ftp8mGhVSmbORJSX6osh-87" value="结束" style="ellipse;whiteSpace=wrap;html=1;rounded=0;strokeWidth=2;" vertex="1" parent="1">
          <mxGeometry x="260" y="810" width="120" height="60" as="geometry" />
        </mxCell>
        <mxCell id="ftp8mGhVSmbORJSX6osh-91" value="否" style="text;html=1;strokeColor=none;fillColor=none;align=center;verticalAlign=middle;whiteSpace=wrap;rounded=0;" vertex="1" parent="1">
          <mxGeometry x="193.25" y="530" width="60" height="30" as="geometry" />
        </mxCell>
        <mxCell id="ftp8mGhVSmbORJSX6osh-94" style="edgeStyle=orthogonalEdgeStyle;rounded=0;orthogonalLoop=1;jettySize=auto;html=1;" edge="1" parent="1" source="ftp8mGhVSmbORJSX6osh-92" target="ftp8mGhVSmbORJSX6osh-83">
          <mxGeometry relative="1" as="geometry" />
        </mxCell>
        <mxCell id="ftp8mGhVSmbORJSX6osh-114" style="edgeStyle=orthogonalEdgeStyle;rounded=0;orthogonalLoop=1;jettySize=auto;html=1;" edge="1" parent="1" source="ftp8mGhVSmbORJSX6osh-92">
          <mxGeometry relative="1" as="geometry">
            <mxPoint x="320" y="400" as="targetPoint" />
            <Array as="points">
              <mxPoint x="530" y="400" />
            </Array>
          </mxGeometry>
        </mxCell>
        <mxCell id="ftp8mGhVSmbORJSX6osh-92" value="采集满2048个点？" style="rhombus;whiteSpace=wrap;html=1;strokeWidth=2;" vertex="1" parent="1">
          <mxGeometry x="460" y="420" width="140" height="80" as="geometry" />
        </mxCell>
        <mxCell id="ftp8mGhVSmbORJSX6osh-95" value="是" style="text;html=1;strokeColor=none;fillColor=none;align=center;verticalAlign=middle;whiteSpace=wrap;rounded=0;" vertex="1" parent="1">
          <mxGeometry x="265.5" y="600" width="60" height="30" as="geometry" />
        </mxCell>
        <mxCell id="ftp8mGhVSmbORJSX6osh-96" value="&lt;span style=&quot;&quot;&gt;设置采样参数&lt;/span&gt;&lt;br style=&quot;&quot;&gt;&lt;span style=&quot;&quot;&gt;和延迟时间&lt;/span&gt;" style="shape=parallelogram;perimeter=parallelogramPerimeter;whiteSpace=wrap;html=1;fixedSize=1;strokeWidth=2;" vertex="1" parent="1">
          <mxGeometry x="260" y="130" width="120" height="60" as="geometry" />
        </mxCell>
        <mxCell id="ftp8mGhVSmbORJSX6osh-108" style="edgeStyle=orthogonalEdgeStyle;rounded=0;orthogonalLoop=1;jettySize=auto;html=1;entryX=0.5;entryY=0;entryDx=0;entryDy=0;" edge="1" parent="1" source="ftp8mGhVSmbORJSX6osh-101" target="ftp8mGhVSmbORJSX6osh-104">
          <mxGeometry relative="1" as="geometry" />
        </mxCell>
        <mxCell id="ftp8mGhVSmbORJSX6osh-101" value="存储数据" style="whiteSpace=wrap;html=1;rounded=0;strokeWidth=2;" vertex="1" parent="1">
          <mxGeometry x="470" y="620" width="120" height="30" as="geometry" />
        </mxCell>
        <mxCell id="ftp8mGhVSmbORJSX6osh-109" style="edgeStyle=orthogonalEdgeStyle;rounded=0;orthogonalLoop=1;jettySize=auto;html=1;entryX=0.5;entryY=0;entryDx=0;entryDy=0;" edge="1" parent="1" source="ftp8mGhVSmbORJSX6osh-104" target="ftp8mGhVSmbORJSX6osh-106">
          <mxGeometry relative="1" as="geometry" />
        </mxCell>
        <mxCell id="ftp8mGhVSmbORJSX6osh-104" value="matlab时频分析" style="rounded=0;whiteSpace=wrap;html=1;strokeWidth=2;" vertex="1" parent="1">
          <mxGeometry x="470" y="680" width="120" height="30" as="geometry" />
        </mxCell>
        <mxCell id="ftp8mGhVSmbORJSX6osh-103" value="&lt;span style=&quot;&quot;&gt;发射数据&lt;/span&gt;" style="shape=parallelogram;perimeter=parallelogramPerimeter;whiteSpace=wrap;html=1;fixedSize=1;strokeWidth=2;" vertex="1" parent="1">
          <mxGeometry x="260" y="670" width="120" height="50" as="geometry" />
        </mxCell>
        <mxCell id="ftp8mGhVSmbORJSX6osh-110" style="edgeStyle=orthogonalEdgeStyle;rounded=0;orthogonalLoop=1;jettySize=auto;html=1;" edge="1" parent="1" source="ftp8mGhVSmbORJSX6osh-106" target="ftp8mGhVSmbORJSX6osh-87">
          <mxGeometry relative="1" as="geometry">
            <Array as="points">
              <mxPoint x="530" y="790" />
              <mxPoint x="320" y="790" />
            </Array>
          </mxGeometry>
        </mxCell>
        <mxCell id="ftp8mGhVSmbORJSX6osh-106" value="matlab App绘制图像" style="rounded=0;whiteSpace=wrap;html=1;strokeWidth=2;" vertex="1" parent="1">
          <mxGeometry x="470" y="740" width="120" height="30" as="geometry" />
        </mxCell>
        <mxCell id="ftp8mGhVSmbORJSX6osh-115" value="是" style="text;html=1;strokeColor=none;fillColor=none;align=center;verticalAlign=middle;whiteSpace=wrap;rounded=0;" vertex="1" parent="1">
          <mxGeometry x="525" y="500" width="60" height="30" as="geometry" />
        </mxCell>
        <mxCell id="ftp8mGhVSmbORJSX6osh-116" value="否" style="text;html=1;strokeColor=none;fillColor=none;align=center;verticalAlign=middle;whiteSpace=wrap;rounded=0;" vertex="1" parent="1">
          <mxGeometry x="525" y="390" width="60" height="30" as="geometry" />
        </mxCell>
      </root>
    </mxGraphModel>
  </diagram>
</mxfile>
